<svg width="590" height="74" viewBox="0 0 590 74" fill="none" xmlns="http://www.w3.org/2000/svg">
<path d="M291.011 0.00455275C199.147 0.00455292 42.6577 4.83001 42.6577 4.83001C42.6577 4.83001 5.73401 4.2042 0.602761 19.7428C-4.52849 35.2815 24.7885 38.2562 24.7885 38.2562C24.7885 38.2562 -10.3298 43.0391 7.76316 59.6898C25.8561 76.3406 294.562 73.0074 297 73.5C299.438 73.9926 525 70.5 525 70.5C525 70.5 590.836 70.8829 589.991 50.7396C589.146 30.5963 558.27 32.0226 558.27 32.0226C558.27 32.0226 584.676 30.3938 575.351 14.8552C566.026 -0.683431 382.875 0.00455258 291.011 0.00455275Z" fill="#FCE2DB"/>
</svg>
