<svg width="494" height="77" viewBox="0 0 494 77" fill="none" xmlns="http://www.w3.org/2000/svg">
<path d="M250.046 0C175.09 0 47.4042 5.35946 47.4042 5.35946C47.4042 5.35946 13.9099 5.75169 10.8649 18.3031C7.81998 30.8545 19.228 35.5613 19.228 35.5613C19.228 35.5613 -2.32982 39.8758 0.207632 56.3496C2.74508 72.8233 5.01814 74 19.228 74C33.4378 74 453.426 77 453.426 77C453.426 77 494.503 72.8233 493.995 56.3496C493.488 39.8759 468.113 35.5613 468.113 35.5613C468.113 35.5613 490.962 35.5613 483.353 18.3031C475.744 1.0449 325.001 0 250.046 0Z" fill="#3F3D56"/>
</svg>
