<svg width="278" height="332" viewBox="0 0 278 332" fill="none" xmlns="http://www.w3.org/2000/svg">
<g filter="url(#filter0_d_2_72)">
<path d="M163.633 174.378C150.886 198.165 133.324 240.912 133.324 240.912C133.324 240.912 127.662 250.184 140.324 258.68C152.987 267.176 158.897 263.835 158.897 263.835C158.897 263.835 162.23 273.12 178.236 277.365C194.242 281.609 230.765 209.337 231.528 208.933C232.29 208.528 257.503 152.193 257.503 152.193C257.503 152.193 266.245 129.435 248.79 120.362C231.335 111.29 228.278 119.943 228.278 119.943C228.278 119.943 230.541 112.354 215.872 107.601C201.204 102.848 176.381 150.59 163.633 174.378Z" fill="#FCE2DB"/>
<path d="M34.018 110.493C23.2904 130.51 10.0546 167.311 10.0546 167.311C10.0546 167.311 5.08932 175.007 20.7146 184.819C36.3399 194.632 42.5031 192.458 42.5031 192.458C42.5031 192.458 47.7066 201.557 66.453 207.957C85.1994 214.357 115.298 153.195 116.097 152.939C116.896 152.684 136.677 104.505 136.677 104.505C136.677 104.505 143.037 84.8191 121.906 73.7319C100.775 62.6446 98.659 70.1708 98.659 70.1708C98.659 70.1708 100.042 63.5055 82.7284 56.8428C65.415 50.18 44.7456 90.4748 34.018 110.493Z" fill="#FCE2DB"/>
<path d="M179.777 164.233C159.839 201.438 127.908 265.905 127.908 265.905C127.908 265.905 119.63 280.717 125.062 286.303C130.494 291.889 136.299 284.82 136.299 284.82C136.299 284.82 134.575 295.625 144.347 294.085C154.119 292.545 213.087 180.494 213.824 179.617C214.561 178.741 258.151 92.855 258.151 92.855C258.151 92.855 274.708 58.8057 266.039 54.6004C257.371 50.3952 251.27 63.2219 251.27 63.2219C251.27 63.2219 256.315 52.16 247.746 52.4288C239.176 52.6976 199.715 127.028 179.777 164.233Z" fill="#FCE2DB"/>
<path d="M66.4272 119.024C48.5225 152.434 21.4982 211.211 21.4982 211.211C21.4982 211.211 13.8508 224.399 24.0448 232.264C34.2389 240.129 40.7239 234.462 40.7239 234.462C40.7239 234.462 41.7416 245.541 56.1621 247.183C70.5825 248.825 122.855 147.835 123.685 147.139C124.516 146.442 162.124 68.4911 162.124 68.4911C162.124 68.4911 175.926 37.3426 161.25 29.8732C146.574 22.4037 141.583 34.1838 141.583 34.1838C141.583 34.1838 145.556 23.9515 132.545 21.344C119.533 18.7365 84.3319 85.6131 66.4272 119.024Z" fill="#FCE2DB"/>
<path d="M190.879 176.666C186.818 184.244 183.377 199.016 183.377 199.016C183.377 199.016 181.294 201.82 192.261 208.242C203.228 214.664 206.77 214.489 206.77 214.489C206.77 214.489 211.179 219.241 223.64 224.538C236.102 229.836 246.848 206.335 247.311 206.324C247.773 206.313 253.801 187.292 253.801 187.292C253.801 187.292 255.195 179.296 240.646 171.589C226.098 163.882 225.76 166.98 225.76 166.98C225.76 166.98 225.754 164.173 214.148 158.943C202.542 153.714 194.941 169.088 190.879 176.666Z" fill="#FCE2DB"/>
<path d="M25.8795 102.666C21.8184 110.244 18.3767 125.016 18.3767 125.016C18.3767 125.016 16.2936 127.82 27.2609 134.242C38.2282 140.664 41.7703 140.489 41.7703 140.489C41.7703 140.489 46.1787 145.241 58.6401 150.538C71.1015 155.836 81.8479 132.335 82.3105 132.324C82.7732 132.313 88.8009 113.292 88.8009 113.292C88.8009 113.292 90.1952 105.296 75.6464 97.5894C61.0977 89.8824 60.7603 92.9801 60.7603 92.9801C60.7603 92.9801 60.7542 90.173 49.1479 84.9433C37.5415 79.7136 29.9405 95.0876 25.8795 102.666Z" fill="#FCE2DB"/>
<path d="M128.118 118.539C108.6 154.96 79.0777 219 79.0777 219C79.0777 219 70.7494 233.38 81.6593 241.845C92.5692 250.31 99.5901 244.107 99.5901 244.107C99.5901 244.107 100.602 256.131 116.106 257.806C131.611 259.481 188.619 149.406 189.518 148.643C190.417 147.88 231.472 62.9368 231.472 62.9368C231.472 62.9368 246.558 29.0036 230.822 21.0019C215.086 13.0002 209.628 25.8317 209.628 25.8317C209.628 25.8317 213.98 14.6888 199.999 11.9549C186.018 9.22105 147.636 82.1186 128.118 118.539Z" fill="#FCE2DB"/>
<path d="M164.807 202.695C186.52 163.046 219.798 93.4744 219.798 93.4744C219.798 93.4744 229.006 77.8014 218.278 69.0474C207.549 60.2934 200.076 67.157 200.076 67.157C200.076 67.157 199.63 54.2896 183.877 52.9565C168.124 51.6234 104.526 171.395 103.571 172.24C102.616 173.085 56.5377 265.423 56.5377 265.423C56.5377 265.423 39.4728 302.271 55.1525 310.383C70.8322 318.496 77.0337 304.569 77.0337 304.569C77.0337 304.569 72.0444 316.652 86.1897 319.166C100.335 321.681 143.095 242.343 164.807 202.695Z" fill="#FCE2DB"/>
</g>
<defs>
<filter id="filter0_d_2_72" x="5.30484" y="11.8801" width="267.246" height="315.344" filterUnits="userSpaceOnUse" color-interpolation-filters="sRGB">
<feFlood flood-opacity="0" result="BackgroundImageFix"/>
<feColorMatrix in="SourceAlpha" type="matrix" values="0 0 0 0 0 0 0 0 0 0 0 0 0 0 0 0 0 0 127 0" result="hardAlpha"/>
<feOffset dy="4"/>
<feGaussianBlur stdDeviation="2"/>
<feComposite in2="hardAlpha" operator="out"/>
<feColorMatrix type="matrix" values="0 0 0 0 0 0 0 0 0 0 0 0 0 0 0 0 0 0 0.25 0"/>
<feBlend mode="normal" in2="BackgroundImageFix" result="effect1_dropShadow_2_72"/>
<feBlend mode="normal" in="SourceGraphic" in2="effect1_dropShadow_2_72" result="shape"/>
</filter>
</defs>
</svg>
