<svg width="274" height="487" viewBox="0 0 274 487" fill="none" xmlns="http://www.w3.org/2000/svg">
<g clip-path="url(#clip0_1_44)">
<path d="M119.768 474.081L109.773 474.08L105.017 435.524L119.77 435.525L119.768 474.081Z" fill="#FFB6B6"/>
<path d="M120.12 484.509L89.3817 484.508V484.119C89.3819 480.946 90.6425 477.903 92.8862 475.659C95.1299 473.415 98.1729 472.155 101.346 472.155H101.347L106.962 467.895L117.438 472.155L120.121 472.155L120.12 484.509Z" fill="#383838"/>
<path d="M223.238 445.92L215.341 452.048L187.944 424.505L199.599 415.46L223.238 445.92Z" fill="#FFB6B6"/>
<path d="M229.91 453.941L205.626 472.788L205.388 472.481C203.442 469.974 202.572 466.797 202.969 463.649C203.366 460.501 204.997 457.639 207.504 455.693L207.504 455.693L209.328 448.885L220.216 445.827L222.336 444.182L229.91 453.941Z" fill="#383838"/>
<path d="M180 259.373C180 259.373 179.318 269.812 178.457 284.735C178.316 287.182 179.148 289.841 179 292.503C178.901 294.27 177.824 295.987 177.724 297.829C177.618 299.772 179.106 301.493 179 303.503C178.896 305.467 177.199 307.72 177.097 309.73C175.995 331.364 172 357.263 176 364.503C177.971 368.071 208 417.503 208 417.503C208 417.503 194 438.503 190 431.503C184.717 422.258 144 379.003 144 370.743C144 362.493 134.58 300.663 134.58 300.663L128.012 337.254L125 344.503L125.946 348.759L124 354.503L123.895 360.188L122 370.743C122 370.743 127.7 452.983 124.49 455.273C121.27 457.573 105.68 461.703 103.84 457.573C102.01 453.443 95.0001 371.743 95.0001 371.743C95.0001 371.743 93.0801 334.303 91.0001 299.503C90.8802 297.483 89.46 295.043 89.35 293.053C89.22 290.743 90.1201 287.743 90.0001 285.503C89.8701 282.933 88.7301 281.123 88.6201 278.663C87.7701 259.653 87.6401 244.673 89.16 242.393C93.7501 235.513 97.8801 230.013 97.8801 230.013C97.8801 230.013 163.48 213.953 180 234.593L180 259.373Z" fill="#383838"/>
<path d="M121 62.5032L136.817 61.6187L148.738 68.1255L181.885 255.841C181.885 255.841 148 271.503 127 265.503C106 259.503 83.8852 259.841 83.8852 259.841L100 80.5032L113 68.5032L121 62.5032Z" fill="white"/>
<path d="M147.388 66.483L171.871 76.4812C175.63 76.6645 179.217 78.1151 182.047 80.5968C184.876 83.0786 186.783 86.4453 187.455 90.1486L185.83 138.501L177 161.503L183.297 213.903L180 220.503L182.849 227.24C178.667 234.029 179.518 242.925 182 252.503H179L173 251.503C173 251.503 159.79 256.089 157.084 239.618C150 196.503 146 215.503 146 215.503L142.513 81.7307L147.388 66.483Z" fill="#383838"/>
<path d="M114 66.5032L91.1291 90.4812C87.3697 90.6645 83.7831 92.1151 80.9534 94.5968C78.1237 97.0786 76.2175 100.445 75.5454 104.149L85 178.503L80.5628 207.033L83 213.503L81.235 220.816L84 227.503L82 236.503L85 249.503L100 245.503L99.8852 234.841L103.885 89.8411L114 66.5032Z" fill="#383838"/>
<path d="M37.7274 189.76L6.57264 212.367C5.37914 212.429 4.22298 212.804 3.22059 213.455C2.21819 214.106 1.40491 215.009 0.862616 216.074C0.32032 217.139 0.0681516 218.328 0.131476 219.521C0.194801 220.715 0.571381 221.871 1.22333 222.872C1.87529 223.874 2.77959 224.686 3.84522 225.227C4.91085 225.768 6.10024 226.019 7.29359 225.954C8.48693 225.889 9.64213 225.511 10.643 224.858C11.6438 224.205 12.4549 223.3 12.9946 222.233L55.359 199.617L37.7274 189.76Z" fill="#FFB6B6"/>
<path d="M81 94.5032C75.0788 97.2343 60.4512 167.155 56.1581 168.637C51.865 170.12 53.5042 169.897 52.9019 171.134C52.2996 172.372 52.1539 177.914 48.0326 178.564C43.9113 179.214 22.1366 199.066 22.1366 199.066L27.6562 217.465C27.6562 217.465 69.5577 193.526 81.1112 180.27C92.6647 167.014 98.8852 98.8411 98.8852 98.8411L100.067 92.0398C100.067 92.0398 86.9212 91.7721 81 94.5032Z" fill="#383838"/>
<path d="M174.962 180.528L147.198 207.189C146.024 207.414 144.93 207.944 144.026 208.726C143.122 209.508 142.44 210.514 142.049 211.644C141.658 212.773 141.571 213.985 141.797 215.159C142.023 216.332 142.554 217.425 143.337 218.328C144.12 219.231 145.128 219.912 146.257 220.302C147.387 220.692 148.599 220.777 149.773 220.55C150.946 220.322 152.038 219.789 152.94 219.005C153.842 218.221 154.522 217.213 154.91 216.083L193.778 187.878L174.962 180.528Z" fill="#FFB6B6"/>
<path d="M179 100.503C173.509 104.02 194.375 155.023 190.326 157.08C186.276 159.136 187.869 158.691 187.442 160C187.015 161.308 187.63 166.818 183.637 168.026C179.643 169.235 160.793 191.882 160.793 191.882L168.781 209.352C168.781 209.352 207.008 179.899 216.637 165.185C226.266 150.472 220 145.503 220 145.503C208.054 120.131 196.881 78.7524 180 81.5032C180 81.5032 184.491 96.9868 179 100.503Z" fill="#383838"/>
<path d="M124.392 58.544C139.197 58.544 151.199 46.5423 151.199 31.7375C151.199 16.9326 139.197 4.93092 124.392 4.93092C109.587 4.93092 97.5858 16.9326 97.5858 31.7375C97.5858 46.5423 109.587 58.544 124.392 58.544Z" fill="#FFB6B6"/>
<path d="M151.538 49.0102C151.538 49.0102 145.634 50.629 142.198 51.5303C142.376 48.9737 143.483 46.5803 144.045 44.0792C144.607 41.5781 144.485 38.6366 142.627 36.8707C140.768 35.1047 136.897 35.7927 136.597 38.3338C135.025 34.9713 133.449 31.6027 131.87 28.2279C127.368 37.495 118.163 29.5978 108.127 31.9394C103.007 33.1454 96.5903 32.6274 93.8854 28.116C95.4054 26.8401 96.6861 25.3037 97.6674 23.5788C96.1073 24.0365 94.4842 24.2422 92.8593 24.1879C92.8964 22.5742 93.3206 20.993 94.0961 19.5774C94.8717 18.1618 95.9758 16.9531 97.3158 16.0531C98.7592 15.1094 95.1864 11.7514 96.4462 10.5693C99.03 8.15675 100.764 9.79501 102.29 6.61495C103.275 4.64847 104.791 2.99778 106.667 1.85073C108.543 0.703679 110.704 0.106336 112.903 0.126702C117.29 0.229442 125.15 0.187122 126.852 4.22872C132.277 0.677722 139.828 1.681 145.13 5.40606C149.537 8.4903 154.553 17.8129 155.66 23.0757C156.767 28.3383 154.328 44.4236 151.538 49.0102Z" fill="#383838"/>
<path d="M272.556 486.469L0.806122 486.777C0.649468 486.777 0.494255 486.747 0.349396 486.687C0.204536 486.627 0.0728761 486.54 -0.0380554 486.429C-0.148987 486.319 -0.237035 486.187 -0.297089 486.042C-0.357142 485.898 -0.388031 485.743 -0.388031 485.586C-0.388031 485.429 -0.357142 485.274 -0.297089 485.13C-0.237035 484.985 -0.148987 484.853 -0.0380554 484.743C0.0728761 484.632 0.204536 484.545 0.349396 484.485C0.494255 484.425 0.649468 484.395 0.806122 484.395L272.556 484.088C272.872 484.088 273.175 484.213 273.398 484.437C273.621 484.66 273.747 484.963 273.747 485.279C273.747 485.594 273.621 485.897 273.398 486.121C273.175 486.344 272.872 486.469 272.556 486.469Z" fill="white"/>
<path d="M163.08 66.506C162.456 65.5285 161.477 64.8322 160.349 64.5648C159.221 64.2973 158.033 64.4798 157.037 65.0734C158.507 63.0306 157.399 59.5397 155.095 58.1286C152.485 56.5298 149.187 56.7947 146.143 57.1126L121.186 59.7193C118.308 60.0199 115.351 60.3438 112.79 61.6889C110.228 63.034 108.121 65.659 108.269 68.5485C106.313 67.8308 104.224 67.5475 102.147 67.7182C100.096 68.0415 98.0725 69.5409 97.8537 71.6062C97.5024 74.9203 101.439 76.8342 104.646 77.7427C110.599 79.4296 116.553 81.1165 122.507 82.8035L120.671 83.1958C132.387 84.2199 144.181 82.5137 155.126 78.2113C157.635 77.2224 160.174 76.038 161.93 73.9923C163.687 71.9467 164.453 68.8262 163.08 66.506Z" fill="white"/>
</g>
<defs>
<clipPath id="clip0_1_44">
<rect width="700.747" height="597.777" fill="white" transform="translate(-427 -111)"/>
</clipPath>
</defs>
</svg>
