<svg width="50" height="50" viewBox="0 0 50 50" fill="#ffffff" xmlns="http://www.w3.org/2000/svg">
<path d="M49.4531 0.3748C49.7096 0.593745 49.8884 0.889797 49.9627 1.21873C50.0371 1.54767 50.003 1.89183 49.8656 2.1998C45.0844 12.9186 35.0438 27.731 27.6938 35.4498C25.6336 37.6091 23.0928 39.2516 20.2781 40.2436C20.2219 40.9529 20.0906 41.9248 19.7781 42.9561C19.15 45.0154 17.6937 47.5779 14.4406 48.3935C11.2901 49.1438 8.02506 49.2838 4.82188 48.806C4.22625 48.712 3.639 48.5709 3.06563 48.3842C2.53516 48.2228 2.04074 47.9607 1.60938 47.6123C1.32491 47.3704 1.10571 47.0609 0.971875 46.7123C0.805995 46.2649 0.810444 45.7722 0.984375 45.3279C1.28125 44.5623 1.97188 44.1404 2.425 43.9154C3.65625 43.2998 4.37813 42.4998 5.13438 41.3342C5.43125 40.8842 5.70937 40.406 6.03125 39.8592L6.39687 39.2404C6.86875 38.4436 7.41562 37.5529 8.10312 36.5904C9.75312 34.281 11.8563 33.6998 13.5594 33.7904C13.9531 33.8123 14.3187 33.8685 14.6469 33.9404C14.8406 33.4029 15.0906 32.7529 15.3906 32.0404C16.2063 30.1061 17.4469 27.606 19.1 25.5748C25.9 17.231 38.4125 6.18105 47.5906 0.2498C47.8732 0.0674235 48.207 -0.0189202 48.5426 0.00359984C48.8781 0.0261199 49.1975 0.156302 49.4531 0.3748V0.3748ZM14.7031 37.2248C14.2884 37.0444 13.8452 36.9386 13.3937 36.9123C12.625 36.8717 11.6031 37.0686 10.6469 38.4092C10.0313 39.2686 9.5375 40.0717 9.08438 40.8373L8.75625 41.3904C8.425 41.956 8.09063 42.5217 7.75625 43.0404C7.12337 44.0658 6.32018 44.9758 5.38125 45.731C7.5375 46.081 10.8063 46.0779 13.6844 45.356C15.4313 44.9217 16.3188 43.5779 16.7875 42.0436C17.0138 41.2813 17.146 40.4942 17.1813 39.6998L14.7031 37.2248V37.2248ZM19.2031 37.306C19.5781 37.181 20.0688 36.9935 20.6344 36.7342C22.4346 35.899 24.0618 34.7329 25.4312 33.2967C31.3687 27.0592 39.2188 15.8904 44.3438 6.3248C36.25 12.3467 26.95 20.8873 21.525 27.5498C20.1438 29.2467 19.0406 31.4342 18.2688 33.2561C17.8906 34.1561 17.6 34.9436 17.4094 35.5061V35.5092L19.2062 37.306H19.2031ZM3.6625 46.806L3.68438 46.7904C3.67766 46.7955 3.67031 46.7997 3.6625 46.8029V46.806ZM14.8563 37.2967L14.8625 37.2998H14.8563V37.2967Z" fill="#ffffff"/>
</svg>
