<svg width="50" height="50" viewBox="0 0 50 50" fill="none" xmlns="http://www.w3.org/2000/svg">
<path d="M33.259 2.31102C33.3234 2.08683 33.3459 1.85127 33.3252 1.61777C33.3046 1.38427 33.2413 1.1574 33.1388 0.950133C33.0364 0.742862 32.8969 0.559241 32.7282 0.409755C32.5595 0.260269 32.365 0.147846 32.1558 0.0789025C31.9466 0.00995944 31.7268 -0.0141525 31.5089 0.00794328C31.2909 0.030039 31.0792 0.0979098 30.8858 0.20768C30.6924 0.317451 30.521 0.466972 30.3815 0.647706C30.242 0.82844 30.1371 1.03685 30.0727 1.26103L16.741 47.689C16.611 48.1417 16.6543 48.6313 16.8612 49.0499C17.0681 49.4685 17.4217 49.7819 17.8442 49.9211C18.2667 50.0603 18.7236 50.014 19.1142 49.7923C19.5049 49.5706 19.7973 49.1917 19.9273 48.739L33.259 2.31102V2.31102ZM14.5146 11.2359C14.6698 11.4018 14.7929 11.5988 14.8769 11.8158C14.9609 12.0327 15.0042 12.2653 15.0042 12.5002C15.0042 12.735 14.9609 12.9676 14.8769 13.1846C14.7929 13.4015 14.6698 13.5986 14.5146 13.7644L4.02583 25L14.5146 36.2356C14.8275 36.5709 15.0033 37.0256 15.0033 37.4998C15.0033 37.974 14.8275 38.4288 14.5146 38.7641C14.2017 39.0994 13.7773 39.2878 13.3347 39.2878C12.8922 39.2878 12.4678 39.0994 12.1549 38.7641L0.489588 26.2643C0.334395 26.0984 0.211267 25.9013 0.127256 25.6844C0.0432442 25.4675 0 25.2349 0 25C0 24.7651 0.0432442 24.5325 0.127256 24.3156C0.211267 24.0987 0.334395 23.9016 0.489588 23.7357L12.1549 11.2359C12.3097 11.0696 12.4936 10.9377 12.696 10.8476C12.8985 10.7576 13.1155 10.7113 13.3347 10.7113C13.5539 10.7113 13.771 10.7576 13.9734 10.8476C14.1759 10.9377 14.3598 11.0696 14.5146 11.2359V11.2359ZM35.4854 11.2359C35.3302 11.4018 35.2071 11.5988 35.1231 11.8158C35.0391 12.0327 34.9958 12.2653 34.9958 12.5002C34.9958 12.735 35.0391 12.9676 35.1231 13.1846C35.2071 13.4015 35.3302 13.5986 35.4854 13.7644L45.9742 25L35.4854 36.2356C35.3305 36.4016 35.2076 36.5987 35.1237 36.8156C35.0399 37.0325 34.9967 37.265 34.9967 37.4998C34.9967 37.7346 35.0399 37.9671 35.1237 38.1841C35.2076 38.401 35.3305 38.5981 35.4854 38.7641C35.6404 38.9301 35.8243 39.0618 36.0267 39.1517C36.2292 39.2415 36.4462 39.2878 36.6653 39.2878C36.8844 39.2878 37.1014 39.2415 37.3038 39.1517C37.5063 39.0618 37.6902 38.9301 37.8451 38.7641L49.5104 26.2643C49.6656 26.0984 49.7887 25.9013 49.8727 25.6844C49.9568 25.4675 50 25.2349 50 25C50 24.7651 49.9568 24.5325 49.8727 24.3156C49.7887 24.0987 49.6656 23.9016 49.5104 23.7357L37.8451 11.2359C37.6903 11.0696 37.5064 10.9377 37.304 10.8476C37.1015 10.7576 36.8845 10.7113 36.6653 10.7113C36.4461 10.7113 36.229 10.7576 36.0266 10.8476C35.8241 10.9377 35.6402 11.0696 35.4854 11.2359V11.2359Z" fill="#383838"/>
</svg>
